<svg width="28" height="28" viewBox="0 0 28 28" fill="none" xmlns="http://www.w3.org/2000/svg">
<path d="M8.71111 5.28878C10.6011 5.28878 12.1332 6.89078 12.1332 8.86667C12.1332 10.8423 10.6011 12.4443 8.71111 12.4443C6.82111 12.4443 5.28878 10.8423 5.28878 8.86667C5.28878 6.89078 6.82111 5.28878 8.71111 5.28878ZM8.71111 10.6556C9.656 10.6556 10.4223 9.85456 10.4223 8.86672C10.4223 7.87867 9.656 7.07767 8.71111 7.07767C7.766 7.07767 6.99994 7.87867 6.99994 8.86672C6.99994 9.85456 7.766 10.6556 8.71111 10.6556ZM26.25 0C27.2172 0 28 0.782778 28 1.75V26.25C28 27.2172 27.2172 28 26.25 28H1.75C0.782778 28 0 27.2172 0 26.25V1.75C0 0.782778 0.782778 0 1.75 0H26.25ZM1.75 25.375C1.75 25.6178 1.84852 25.8366 2.00803 25.9954C1.84939 25.8366 1.75 25.6178 1.75 25.375ZM26.25 25.375V22.7483L19.8711 16.3694C19.5293 16.0276 18.9755 16.0276 18.6337 16.3694C18.6337 16.3694 14.4202 20.5829 13.4896 21.5143C12.5591 22.444 11.9321 22.4303 11.0152 21.5143C10.0981 20.5964 9.37111 19.8694 9.37111 19.8694C9.02932 19.5276 8.4755 19.5276 8.13372 19.8694L2.00761 25.9955C2.1656 26.1524 2.38348 26.2501 2.62456 26.2501H25.3746C25.8581 26.2501 26.2496 25.8586 26.2496 25.3751L26.25 25.375ZM26.25 20.2737V2.62478C26.25 2.14127 25.8585 1.74978 25.375 1.74978H2.625C2.14149 1.74978 1.75 2.14127 1.75 2.62478V23.7787L7.51556 18.0142C8.19894 17.3291 9.30656 17.3291 9.98994 18.0142L12.2527 20.2762L18.0155 14.5145C18.6989 13.8294 19.8065 13.8294 20.4899 14.5145L26.25 20.2737Z" fill="white"/>
</svg>
