<svg width="158" height="40" viewBox="0 0 158 40" fill="none" xmlns="http://www.w3.org/2000/svg">
<circle cx="19.5569" cy="19.5569" r="18.5275" stroke="#D3F9FF" stroke-width="2.05862"/>
<circle cx="44.0649" cy="12.5992" r="1.14496" fill="#FCD8FB"/>
<path d="M5.14648 25.7316L7.79615 19.4921L10.4008 12.9984C11.0052 11.4918 13.0832 11.3518 13.8841 12.7638L18.4379 20.7919C18.9539 21.7016 20.2586 21.719 20.7986 20.8233L25.6955 12.7016C26.5598 11.2682 28.6846 11.4175 29.3399 12.9578L34.5905 25.2996C34.7656 25.7113 34.2343 26.055 33.9305 25.7265L23.8641 14.8386C22.5565 13.4244 20.2209 14.6569 20.6503 16.5345L20.7703 17.0593C21.0263 18.1785 21.5096 19.2332 22.1901 20.1579V20.1579C24.7587 23.6481 29.7481 24.2284 33.0492 21.4208L41.8246 13.9574" stroke="url(#paint0_linear_14_166)" stroke-width="1.0336" stroke-linecap="round"/>
<path d="M71.92 12.248V29H68.56V18.104L64.072 29H61.528L57.016 18.104V29H53.656V12.248H57.472L62.8 24.704L68.128 12.248H71.92ZM83.9779 29.168C82.4099 29.168 80.9699 28.8 79.6579 28.064C78.3459 27.328 77.3059 26.312 76.5379 25.016C75.7699 23.704 75.3859 22.224 75.3859 20.576C75.3859 18.944 75.7699 17.48 76.5379 16.184C77.3059 14.872 78.3459 13.848 79.6579 13.112C80.9699 12.376 82.4099 12.008 83.9779 12.008C85.5619 12.008 87.0019 12.376 88.2979 13.112C89.6099 13.848 90.6419 14.872 91.3939 16.184C92.1619 17.48 92.5459 18.944 92.5459 20.576C92.5459 22.224 92.1619 23.704 91.3939 25.016C90.6419 26.312 89.6099 27.328 88.2979 28.064C86.9859 28.8 85.5459 29.168 83.9779 29.168ZM83.9779 26.168C84.9859 26.168 85.8739 25.944 86.6419 25.496C87.4099 25.032 88.0099 24.376 88.4419 23.528C88.8739 22.68 89.0899 21.696 89.0899 20.576C89.0899 19.456 88.8739 18.48 88.4419 17.648C88.0099 16.8 87.4099 16.152 86.6419 15.704C85.8739 15.256 84.9859 15.032 83.9779 15.032C82.9699 15.032 82.0739 15.256 81.2899 15.704C80.5219 16.152 79.9219 16.8 79.4899 17.648C79.0579 18.48 78.8419 19.456 78.8419 20.576C78.8419 21.696 79.0579 22.68 79.4899 23.528C79.9219 24.376 80.5219 25.032 81.2899 25.496C82.0739 25.944 82.9699 26.168 83.9779 26.168ZM99.4377 26.168H106.974V29H95.5497V26.408L103.038 15.08H95.5497V12.248H106.974V14.84L99.4377 26.168ZM121.066 25.808H114.394L113.29 29H109.762L115.786 12.224H119.698L125.722 29H122.17L121.066 25.808ZM120.154 23.12L117.73 16.112L115.306 23.12H120.154ZM137.573 29L133.877 22.472H132.293V29H128.933V12.248H135.221C136.517 12.248 137.621 12.48 138.533 12.944C139.445 13.392 140.125 14.008 140.573 14.792C141.037 15.56 141.269 16.424 141.269 17.384C141.269 18.488 140.949 19.488 140.309 20.384C139.669 21.264 138.717 21.872 137.453 22.208L141.461 29H137.573ZM132.293 19.952H135.101C136.013 19.952 136.693 19.736 137.141 19.304C137.589 18.856 137.813 18.24 137.813 17.456C137.813 16.688 137.589 16.096 137.141 15.68C136.693 15.248 136.013 15.032 135.101 15.032H132.293V19.952ZM156.669 12.248V14.96H152.205V29H148.845V14.96H144.381V12.248H156.669Z" fill="white"/>
<defs>
<linearGradient id="paint0_linear_14_166" x1="8.5" y1="18" x2="35.5" y2="18" gradientUnits="userSpaceOnUse">
<stop stop-color="#D3F9FF"/>
<stop offset="1" stop-color="#FADAFB"/>
</linearGradient>
</defs>
</svg>
