<svg width="28" height="28" viewBox="0 0 28 28" fill="none" xmlns="http://www.w3.org/2000/svg">
<path d="M21.5874 4.08746H6.4206C6.09853 4.08746 5.8374 4.3486 5.8374 4.67066V8.75403C5.8374 8.90872 5.89873 9.05715 6.00811 9.16653C6.11767 9.2759 6.26591 9.33743 6.4206 9.33743C8.11218 9.33743 7.58719 9.5882 8.99302 8.17083L11.6705 8.17064V21.109L9.22057 21.5874C8.9446 21.6436 8.74831 21.8889 8.75398 22.1706V23.3374C8.75398 23.492 8.8155 23.6403 8.92487 23.7498C9.03425 23.8592 9.18268 23.9206 9.33737 23.9206H18.6703C18.825 23.9206 18.9734 23.8592 19.0828 23.7498C19.1921 23.6403 19.2537 23.492 19.2537 23.3374V22.1706C19.2593 21.8889 19.063 21.6436 18.7871 21.5874L16.3371 21.109V8.17064H19.0146C20.4203 9.54738 19.8662 9.33743 21.587 9.33743C21.7417 9.33743 21.89 9.27591 21.9995 9.16653C22.1089 9.05716 22.1702 8.90872 22.1702 8.75403V4.67066C22.1702 4.51598 22.1089 4.36774 21.9995 4.25817C21.89 4.14879 21.7417 4.08746 21.587 4.08746L21.5874 4.08746Z" fill="white"/>
<path d="M6.99988 2.33339H5.2499C4.92783 2.33339 4.6665 2.07206 4.6665 1.74999C4.6665 1.42792 4.92783 1.1666 5.2499 1.1666H6.99988C7.32195 1.1666 7.58327 1.42792 7.58327 1.74999C7.58327 2.07206 7.32195 2.33339 6.99988 2.33339Z" fill="white"/>
<path d="M11.0834 2.33339H9.33339C9.01113 2.33339 8.75 2.07206 8.75 1.74999C8.75 1.42792 9.01113 1.1666 9.33339 1.1666H11.0834C11.4054 1.1666 11.6666 1.42792 11.6666 1.74999C11.6666 2.07206 11.4054 2.33339 11.0834 2.33339Z" fill="white"/>
<path d="M22.7499 2.33339H20.9999C20.6778 2.33339 20.4165 2.07206 20.4165 1.74999C20.4165 1.42792 20.6778 1.1666 20.9999 1.1666H22.7499C23.0719 1.1666 23.3333 1.42792 23.3333 1.74999C23.3333 2.07206 23.0719 2.33339 22.7499 2.33339Z" fill="white"/>
<path d="M18.6667 2.33339H16.9167C16.5946 2.33339 16.3335 2.07206 16.3335 1.74999C16.3335 1.42792 16.5946 1.1666 16.9167 1.1666H18.6667C18.9889 1.1666 19.2501 1.42792 19.2501 1.74999C19.2501 2.07206 18.9889 2.33339 18.6667 2.33339Z" fill="white"/>
<path d="M14.5835 2.33339H13.4167C13.0946 2.33339 12.8335 2.07206 12.8335 1.74999C12.8335 1.42792 13.0946 1.1666 13.4167 1.1666H14.5835C14.9055 1.1666 15.1667 1.42792 15.1667 1.74999C15.1667 2.07206 14.9055 2.33339 14.5835 2.33339Z" fill="white"/>
<path d="M1.1665 22.7498V20.9998C1.1665 20.6778 1.42783 20.4165 1.7499 20.4165C2.07196 20.4165 2.33329 20.6778 2.33329 20.9998V22.7498C2.33329 23.0719 2.07196 23.3332 1.7499 23.3332C1.42783 23.3332 1.1665 23.0719 1.1665 22.7498Z" fill="white"/>
<path d="M1.1665 18.6664V16.9164C1.1665 16.5943 1.42783 16.3332 1.7499 16.3332C2.07196 16.3332 2.33329 16.5943 2.33329 16.9164V18.6664C2.33329 18.9886 2.07196 19.2498 1.7499 19.2498C1.42783 19.2498 1.1665 18.9886 1.1665 18.6664Z" fill="white"/>
<path d="M1.1665 6.99994V5.24996C1.1665 4.92789 1.42783 4.66656 1.7499 4.66656C2.07196 4.66656 2.33329 4.92789 2.33329 5.24996V6.99994C2.33329 7.32201 2.07196 7.58334 1.7499 7.58334C1.42783 7.58334 1.1665 7.32201 1.1665 6.99994Z" fill="white"/>
<path d="M1.1665 11.0834V9.33343C1.1665 9.01117 1.42783 8.75003 1.7499 8.75003C2.07196 8.75003 2.33329 9.01117 2.33329 9.33343V11.0834C2.33329 11.4055 2.07196 11.6666 1.7499 11.6666C1.42783 11.6666 1.1665 11.4055 1.1665 11.0834Z" fill="white"/>
<path d="M1.1665 14.5834V13.4166C1.1665 13.0945 1.42783 12.8334 1.7499 12.8334C2.07196 12.8334 2.33329 13.0945 2.33329 13.4166V14.5834C2.33329 14.9055 2.07196 15.1666 1.7499 15.1666C1.42783 15.1666 1.1665 14.9055 1.1665 14.5834Z" fill="white"/>
<path d="M22.7499 26.8333H20.9999C20.6778 26.8333 20.4165 26.572 20.4165 26.2499C20.4165 25.9279 20.6778 25.6665 20.9999 25.6665H22.7499C23.0719 25.6665 23.3333 25.9279 23.3333 26.2499C23.3333 26.572 23.0719 26.8333 22.7499 26.8333Z" fill="white"/>
<path d="M18.6667 26.8333H16.9167C16.5946 26.8333 16.3335 26.572 16.3335 26.2499C16.3335 25.9279 16.5946 25.6665 16.9167 25.6665H18.6667C18.9889 25.6665 19.2501 25.9279 19.2501 26.2499C19.2501 26.572 18.9889 26.8333 18.6667 26.8333Z" fill="white"/>
<path d="M6.99988 26.8333H5.2499C4.92783 26.8333 4.6665 26.572 4.6665 26.2499C4.6665 25.9279 4.92783 25.6665 5.2499 25.6665H6.99988C7.32195 25.6665 7.58327 25.9279 7.58327 26.2499C7.58327 26.572 7.32195 26.8333 6.99988 26.8333Z" fill="white"/>
<path d="M11.0834 26.8333H9.33339C9.01113 26.8333 8.75 26.572 8.75 26.2499C8.75 25.9279 9.01113 25.6665 9.33339 25.6665H11.0834C11.4054 25.6665 11.6666 25.9279 11.6666 26.2499C11.6666 26.572 11.4054 26.8333 11.0834 26.8333Z" fill="white"/>
<path d="M14.5835 26.8333H13.4167C13.0946 26.8333 12.8335 26.572 12.8335 26.2499C12.8335 25.9279 13.0946 25.6665 13.4167 25.6665H14.5835C14.9055 25.6665 15.1667 25.9279 15.1667 26.2499C15.1667 26.572 14.9055 26.8333 14.5835 26.8333Z" fill="white"/>
<path d="M25.666 6.99994V5.24996C25.666 4.92789 25.9273 4.66656 26.2494 4.66656C26.5715 4.66656 26.8328 4.92789 26.8328 5.24996V6.99994C26.8328 7.32201 26.5715 7.58334 26.2494 7.58334C25.9273 7.58334 25.666 7.32201 25.666 6.99994Z" fill="white"/>
<path d="M25.666 11.0834V9.33343C25.666 9.01117 25.9273 8.75003 26.2494 8.75003C26.5715 8.75003 26.8328 9.01117 26.8328 9.33343V11.0834C26.8328 11.4055 26.5715 11.6666 26.2494 11.6666C25.9273 11.6666 25.666 11.4055 25.666 11.0834Z" fill="white"/>
<path d="M25.666 22.7498V20.9998C25.666 20.6778 25.9273 20.4165 26.2494 20.4165C26.5715 20.4165 26.8328 20.6778 26.8328 20.9998V22.7498C26.8328 23.0719 26.5715 23.3332 26.2494 23.3332C25.9273 23.3332 25.666 23.0719 25.666 22.7498Z" fill="white"/>
<path d="M25.666 18.6664V16.9164C25.666 16.5943 25.9273 16.3332 26.2494 16.3332C26.5715 16.3332 26.8328 16.5943 26.8328 16.9164V18.6664C26.8328 18.9886 26.5715 19.2498 26.2494 19.2498C25.9273 19.2498 25.666 18.9886 25.666 18.6664Z" fill="white"/>
<path d="M25.6709 14.5875V13.4207C25.6709 13.0986 25.9322 12.8375 26.2543 12.8375C26.5764 12.8375 26.8377 13.0986 26.8377 13.4207V14.5875C26.8377 14.9096 26.5764 15.1707 26.2543 15.1707C25.9322 15.1707 25.6709 14.9096 25.6709 14.5875Z" fill="white"/>
<path d="M0.583394 0H2.91677C3.23884 0 3.50016 0.322068 3.50016 0.583396V2.91678C3.50016 3.23885 3.23903 3.50017 2.91677 3.50017H0.583394C0.261327 3.50017 0 3.17811 0 2.91678V0.583396C0 0.261328 0.261132 0 0.583394 0V0Z" fill="white"/>
<path d="M25.0834 0H27.4168C27.7388 0 28.0002 0.322068 28.0002 0.583396V2.91678C28.0002 3.23885 27.739 3.50017 27.4168 3.50017H25.0834C24.7613 3.50017 24.5 3.17811 24.5 2.91678V0.583396C24.5 0.261328 24.7611 0 25.0834 0V0Z" fill="white"/>
<path d="M0.583394 24.4998H2.91677C3.23884 24.4998 3.50016 24.8219 3.50016 25.0832V27.4166C3.50016 27.7387 3.23903 28 2.91677 28H0.583394C0.261327 28 0 27.6779 0 27.4166V25.0832C0 24.7612 0.261132 24.4998 0.583394 24.4998Z" fill="white"/>
<path d="M25.0834 24.4998H27.4168C27.7388 24.4998 28.0002 24.8219 28.0002 25.0832V27.4166C28.0002 27.7387 27.739 28 27.4168 28H25.0834C24.7613 28 24.5 27.6779 24.5 27.4166V25.0832C24.5 24.7612 24.7611 24.4998 25.0834 24.4998Z" fill="white"/>
</svg>
