<svg width="104" height="109" viewBox="0 0 104 109" fill="none" xmlns="http://www.w3.org/2000/svg">
<path d="M98.5671 34.2018L90.8921 28.0614V17.2537C90.8921 13.1897 87.5866 9.8841 83.5225 9.8841H68.17L59.2651 2.7594C54.8145 -0.805643 48.3569 -0.806579 43.9117 2.7594L35.0049 9.88503H19.6524C15.5883 9.88503 12.2828 13.1906 12.2828 17.2547V28.0623L4.60779 34.2018C1.67958 36.5433 0 40.0363 0 43.784V95.8629C0 102.635 5.51086 108.146 12.2828 108.146H90.8924C97.6643 108.146 103.175 102.635 103.175 95.8629V43.784C103.175 40.0353 101.495 36.5424 98.5674 34.2028L98.5671 34.2018ZM90.8921 34.3526L95.4999 38.0393C95.9916 38.4314 96.4065 38.8883 96.7748 39.3773L90.892 44.0819L90.8921 34.3526ZM46.9831 6.59361C49.6506 4.45693 53.5219 4.45419 56.1951 6.59361L60.3076 9.88352H42.8677L46.9821 6.59268L46.9831 6.59361ZM17.1956 17.2541C17.1956 15.8997 18.2978 14.7976 19.6522 14.7976H83.5225C84.8769 14.7976 85.979 15.8997 85.979 17.2541V48.0125L60.8006 68.152L59.2661 66.9246C54.8156 63.3596 48.3588 63.3614 43.9108 66.9246L42.3755 68.1538L17.197 48.0143V17.2536L17.1956 17.2541ZM7.67473 38.0389L12.2825 34.3522V44.0824L6.39967 39.3778C6.76796 38.8889 7.18471 38.4319 7.67546 38.0398L7.67473 38.0389ZM4.91287 95.8637V44.4774L38.4436 71.2982L5.22637 97.8758C5.04177 97.2324 4.91198 96.5652 4.91198 95.8643L4.91287 95.8637ZM90.8921 103.233H12.2825C10.7143 103.233 9.26494 102.733 8.06942 101.895L46.9812 70.7572C49.6488 68.6205 53.5219 68.6177 56.1914 70.7572L95.1031 101.892C93.9069 102.731 92.4583 103.231 90.89 103.231L90.8921 103.233ZM98.2618 95.8637C98.2618 96.5656 98.132 97.2318 97.9474 97.8752L64.7302 71.2977L98.2609 44.4768L98.2618 95.8637Z" fill="#343090"/>
<path d="M61.6501 56.2981C62.8126 55.5972 63.1882 54.0893 62.489 52.9259C61.7872 51.7625 60.2765 51.3887 59.1168 52.0869C56.8348 53.4614 54.21 54.1871 51.5286 54.1871C43.4005 54.1871 36.7893 47.5759 36.7893 39.4478C36.7893 31.3196 43.4005 24.7085 51.5286 24.7085C59.6567 24.7085 66.2679 31.3196 66.2679 39.5163C66.256 42.143 63.889 44.3627 61.0944 44.3627C60.4501 44.3627 59.8515 44.105 59.4083 43.6371C58.965 43.171 58.7402 42.5605 58.7741 41.9153L59.1478 34.7925C59.2173 33.4518 58.7284 32.1266 57.8053 31.1524C56.8814 30.179 55.5836 29.6225 54.2429 29.6225H53.1462C47.119 29.6225 41.9602 34.5183 41.6439 40.5572C41.5233 42.8684 42.3211 45.0527 43.893 46.7086C45.4622 48.3637 47.6033 49.2749 49.9174 49.2749C52.1528 49.2749 54.2201 48.3893 55.8103 46.9728C55.8231 46.9874 55.8323 47.0039 55.846 47.0185C57.2049 48.4515 59.1186 49.2749 61.0946 49.2758H61.0982C66.6365 49.2758 71.1602 44.9092 71.1848 39.4487C71.1848 28.6127 62.3684 19.7963 51.5324 19.7963C40.6964 19.7963 31.88 28.6127 31.88 39.4487C31.88 50.2846 40.6964 59.1011 51.5324 59.1011C55.1066 59.1011 58.6068 58.1314 61.6539 56.2973L61.6501 56.2981ZM53.9241 40.5491V40.55V40.56C53.8144 42.6209 51.9784 44.3609 49.9139 44.3609C48.9616 44.3609 48.0879 43.9926 47.4536 43.3255C46.8193 42.6556 46.4967 41.7654 46.5479 40.7912C46.7252 37.3989 49.7456 34.5338 53.1434 34.5338H54.2401L53.9257 40.5463L53.9241 40.5491Z" fill="#343090"/>
</svg>
