<svg width="88" height="113" viewBox="0 0 88 113" fill="none" xmlns="http://www.w3.org/2000/svg">
<path d="M61.7744 61.5759C62.69 60.0342 62.7276 58.1909 61.875 56.6238L49.7899 34.297C48.912 32.6801 47.22 31.6771 45.3774 31.6771C43.5349 31.6771 41.8419 32.6801 40.9648 34.297L37.8551 40.051L34.7463 34.297C33.8683 32.6801 32.1764 31.6771 30.3328 31.6771C28.4903 31.6771 26.7974 32.6801 25.9203 34.297L13.8352 56.6238C12.9826 58.1909 13.0202 60.0332 13.9358 61.5759C14.8513 63.1053 16.456 64.0209 18.2487 64.0209H57.4629C59.2556 64.0209 60.8603 63.1054 61.775 61.5759H61.7744ZM18.2486 59.0059L30.3337 36.6912L42.4187 59.0059H18.2486ZM46.8315 56.6238L40.7015 45.316L45.3773 36.6912L57.4624 59.0059H47.4331C47.4331 58.1909 47.2319 57.3768 46.8314 56.6238H46.8315ZM54.1526 76.5573H21.558C20.179 76.5573 19.051 75.4292 19.051 74.0502C19.051 72.6713 20.179 71.5432 21.558 71.5432H54.1526C55.5316 71.5432 56.6596 72.6713 56.6596 74.0502C56.6596 75.4284 55.5315 76.5573 54.1526 76.5573ZM85.4934 90.3468H75.4641V15.1287C75.4641 13.7496 74.3361 12.6216 72.9571 12.6216H65.4348V2.59231C65.4348 1.21327 64.3068 0.0852661 62.9278 0.0852661H50.3914C49.0124 0.0852661 47.8844 1.21334 47.8844 2.59231V12.6216H27.8257V2.59231C27.8257 1.21327 26.6977 0.0852661 25.3187 0.0852661H12.7823C11.4033 0.0852661 10.2753 1.21334 10.2753 2.59231V12.6216H2.75302C1.37398 12.6216 0.245972 13.7497 0.245972 15.1287V97.8687C0.245972 106.167 6.99076 112.912 15.2894 112.912H72.9566C81.2553 112.912 88.0001 106.167 88.0001 97.8687V92.8546C88.0001 91.4746 86.872 90.3466 85.493 90.3466L85.4934 90.3468ZM52.8989 5.09959H60.4212V12.6219H52.8989V5.09959ZM15.2898 5.09959H22.8121V12.6219H15.2898V5.09959ZM25.3191 92.8541V97.8682C25.3191 103.397 20.8184 107.898 15.2898 107.898C9.76152 107.898 5.26051 103.397 5.26051 97.8682V17.6355H70.4496V90.3464H27.826C26.4469 90.3464 25.3189 91.4745 25.3189 92.8534L25.3191 92.8541ZM82.9864 97.8691C82.9864 103.397 78.4856 107.898 72.9571 107.898H26.4718C28.866 105.228 30.3326 101.731 30.3326 97.8691V95.3621H82.9853L82.9864 97.8691Z" fill="#343090"/>
</svg>
